<mxfile host="app.diagrams.net" modified="2021-01-19T20:41:35.714Z" agent="5.0 (Windows NT 10.0; Win64; x64) AppleWebKit/537.36 (KHTML, like Gecko) Chrome/87.0.4280.141 Safari/537.36" etag="6vHIaoqGNK9SkGFaH-mZ" version="14.2.2" type="github">
  <diagram id="s364JGcUKSa12-7OBkJO" name="Page-1">
    <mxGraphModel dx="-8327" dy="934" grid="1" gridSize="10" guides="1" tooltips="1" connect="1" arrows="1" fold="1" page="1" pageScale="1" pageWidth="5000" pageHeight="5000" math="0" shadow="0">
      <root>
        <mxCell id="0" />
        <mxCell id="1" parent="0" />
        <mxCell id="OzWvhK6dAo9HymXKtD1C-1" value="Achivement System" style="rounded=1;whiteSpace=wrap;html=1;" vertex="1" parent="1">
          <mxGeometry x="12440" y="130" width="120" height="60" as="geometry" />
        </mxCell>
        <mxCell id="OzWvhK6dAo9HymXKtD1C-2" value="PvM" style="rounded=1;whiteSpace=wrap;html=1;" vertex="1" parent="1">
          <mxGeometry x="12200" y="280" width="120" height="60" as="geometry" />
        </mxCell>
        <mxCell id="OzWvhK6dAo9HymXKtD1C-3" value="PvP" style="rounded=1;whiteSpace=wrap;html=1;" vertex="1" parent="1">
          <mxGeometry x="11720" y="280" width="120" height="60" as="geometry" />
        </mxCell>
        <mxCell id="OzWvhK6dAo9HymXKtD1C-4" value="TAMING" style="rounded=1;whiteSpace=wrap;html=1;" vertex="1" parent="1">
          <mxGeometry x="12680" y="280" width="120" height="60" as="geometry" />
        </mxCell>
        <mxCell id="OzWvhK6dAo9HymXKtD1C-5" value="CRAFTING" style="rounded=1;whiteSpace=wrap;html=1;" vertex="1" parent="1">
          <mxGeometry x="13160" y="280" width="120" height="60" as="geometry" />
        </mxCell>
        <mxCell id="OzWvhK6dAo9HymXKtD1C-6" value="" style="endArrow=classic;html=1;exitX=0;exitY=0.5;exitDx=0;exitDy=0;entryX=0.5;entryY=0;entryDx=0;entryDy=0;" edge="1" parent="1" source="OzWvhK6dAo9HymXKtD1C-1" target="OzWvhK6dAo9HymXKtD1C-3">
          <mxGeometry width="50" height="50" relative="1" as="geometry">
            <mxPoint x="12320" y="200" as="sourcePoint" />
            <mxPoint x="12370" y="150" as="targetPoint" />
            <Array as="points">
              <mxPoint x="11780" y="160" />
            </Array>
          </mxGeometry>
        </mxCell>
        <mxCell id="OzWvhK6dAo9HymXKtD1C-7" value="" style="endArrow=classic;html=1;exitX=0;exitY=0.5;exitDx=0;exitDy=0;entryX=0.5;entryY=0;entryDx=0;entryDy=0;" edge="1" parent="1" source="OzWvhK6dAo9HymXKtD1C-1" target="OzWvhK6dAo9HymXKtD1C-2">
          <mxGeometry width="50" height="50" relative="1" as="geometry">
            <mxPoint x="12470" y="370" as="sourcePoint" />
            <mxPoint x="12520" y="320" as="targetPoint" />
            <Array as="points">
              <mxPoint x="12260" y="160" />
            </Array>
          </mxGeometry>
        </mxCell>
        <mxCell id="OzWvhK6dAo9HymXKtD1C-8" value="" style="endArrow=classic;html=1;exitX=1;exitY=0.5;exitDx=0;exitDy=0;entryX=0.5;entryY=0;entryDx=0;entryDy=0;" edge="1" parent="1" source="OzWvhK6dAo9HymXKtD1C-1" target="OzWvhK6dAo9HymXKtD1C-5">
          <mxGeometry width="50" height="50" relative="1" as="geometry">
            <mxPoint x="12930" y="340" as="sourcePoint" />
            <mxPoint x="12980" y="290" as="targetPoint" />
            <Array as="points">
              <mxPoint x="13220" y="160" />
            </Array>
          </mxGeometry>
        </mxCell>
        <mxCell id="OzWvhK6dAo9HymXKtD1C-9" value="" style="endArrow=classic;html=1;exitX=1;exitY=0.5;exitDx=0;exitDy=0;entryX=0.5;entryY=0;entryDx=0;entryDy=0;" edge="1" parent="1" source="OzWvhK6dAo9HymXKtD1C-1" target="OzWvhK6dAo9HymXKtD1C-4">
          <mxGeometry width="50" height="50" relative="1" as="geometry">
            <mxPoint x="12850" y="460" as="sourcePoint" />
            <mxPoint x="12900" y="410" as="targetPoint" />
            <Array as="points">
              <mxPoint x="12740" y="160" />
            </Array>
          </mxGeometry>
        </mxCell>
        <mxCell id="OzWvhK6dAo9HymXKtD1C-10" value="" style="rounded=1;whiteSpace=wrap;html=1;" vertex="1" parent="1">
          <mxGeometry x="11780" y="390" width="120" height="60" as="geometry" />
        </mxCell>
      </root>
    </mxGraphModel>
  </diagram>
</mxfile>
